HIERARCHY
ROOT Hips
{
 OFFSET 0.000000 0.000000 0.000000
 CHANNELS 6 Xposition Yposition Zposition Yrotation Xrotation Zrotation
 JOINT Chest
 {
  OFFSET 0.000000 10.385163 0.011643
  CHANNELS 3 Yrotation Xrotation Zrotation
  JOINT Chest2
  {
   OFFSET 0.000000 11.579334 -0.021150
   CHANNELS 3 Yrotation Xrotation Zrotation
   JOINT Chest3
   {
    OFFSET 0.000000 10.463212 0.000000
    CHANNELS 3 Yrotation Xrotation Zrotation
    JOINT Chest4
    {
     OFFSET 0.000000 10.463212 0.000000
     CHANNELS 3 Yrotation Xrotation Zrotation
     JOINT Neck
     {
      OFFSET 0.000000 14.544862 0.000000
      CHANNELS 3 Yrotation Xrotation Zrotation
      JOINT Head
      {
       OFFSET 0.000000 9.730630 -0.050295
       CHANNELS 3 Yrotation Xrotation Zrotation
       End Site
       {
        OFFSET 0.000000 18.757589 -0.026270
       }
      }
     }
     JOINT RightCollar
     {
      OFFSET -2.985174 8.102313 0.000000
      CHANNELS 3 Yrotation Xrotation Zrotation
      JOINT RightShoulder
      {
       OFFSET -13.558590 0.000000 0.000000
       CHANNELS 3 Yrotation Xrotation Zrotation
       JOINT RightElbow
       {
        OFFSET -28.208579 0.000000 0.000000
        CHANNELS 3 Yrotation Xrotation Zrotation
        JOINT RightWrist
        {
         OFFSET -23.322907 0.000000 0.010349
         CHANNELS 3 Yrotation Xrotation Zrotation
         End Site
         {
          OFFSET -17.603338 0.000000 0.000000
         }
        }
       }
      }
     }
     JOINT LeftCollar
     {
      OFFSET 2.985174 8.102313 0.000000
      CHANNELS 3 Yrotation Xrotation Zrotation
      JOINT LeftShoulder
      {
       OFFSET 13.558590 0.000000 0.000000
       CHANNELS 3 Yrotation Xrotation Zrotation
       JOINT LeftElbow
       {
        OFFSET 28.208579 0.000000 0.000000
        CHANNELS 3 Yrotation Xrotation Zrotation
        JOINT LeftWrist
        {
         OFFSET 23.322907 0.000000 0.010349
         CHANNELS 3 Yrotation Xrotation Zrotation
         End Site
         {
          OFFSET 17.603338 0.000000 0.000000
         }
        }
       }
      }
     }
    }
   }
  }
 }
 JOINT RightHip
 {
  OFFSET -8.341224 -0.057053 -0.005822
  CHANNELS 3 Yrotation Xrotation Zrotation
  JOINT RightKnee
  {
   OFFSET 0.000000 -44.280013 0.005508
   CHANNELS 3 Yrotation Xrotation Zrotation
   JOINT RightAnkle
   {
    OFFSET 0.000000 -43.261728 0.009315
    CHANNELS 3 Yrotation Xrotation Zrotation
    JOINT RightToe
    {
     OFFSET 0.000000 -8.082955 18.257715
     CHANNELS 3 Yrotation Xrotation Zrotation
     End Site
     {
      OFFSET 0.000000 -1.634678 7.189621
     }
    }
   }
  }
 }
 JOINT LeftHip
 {
  OFFSET 8.341224 -0.057053 -0.005822
  CHANNELS 3 Yrotation Xrotation Zrotation
  JOINT LeftKnee
  {
   OFFSET 0.000000 -44.280013 0.005508
   CHANNELS 3 Yrotation Xrotation Zrotation
   JOINT LeftAnkle
   {
    OFFSET 0.000000 -43.261728 0.009315
    CHANNELS 3 Yrotation Xrotation Zrotation
    JOINT LeftToe
    {
     OFFSET 0.000000 -8.082955 18.257715
     CHANNELS 3 Yrotation Xrotation Zrotation
     End Site
     {
      OFFSET 0.000000 -1.634678 7.189621
     }
    }
   }
  }
 }
}
MOTION
Frames: 9
Frame Time: 0.016667
0.000000 95.489079 0.000000 0.000000 -5.826342 0.000000 0.000000 11.116423 0.000000 0.000000 -5.290081 0.000000 0.000000 0.000000 0.000000 0.000000 0.000000 0.000000 0.000000 12.665069 0.000000 0.000000 0.575450 0.000000 0.000000 0.000000 0.000000 0.000000 0.000000 0.000000 2.337306 0.000000 0.000000 -2.337306 0.000000 0.000000 0.000000 0.000000 0.000000 0.000000 0.000000 0.000000 -2.337306 0.000000 0.000000 2.337306 0.000000 0.000000 0.000000 8.578828 0.000000 0.000000 1.905768 0.000000 0.000000 -4.658254 0.000000 0.000000 0.000000 0.000000 0.000000 8.578828 0.000000 0.000000 1.905768 0.000000 0.000000 -4.658254 0.000000 0.000000 0.000000 0.000000
-165.602192 97.111216 -359.711255 -47.254797 -25.249859 -2.362427 -1.330490 14.750945 2.164923 -0.655623 6.549775 0.996560 -0.655626 6.549775 0.996558 -0.501908 4.911285 0.753657 15.858388 15.875436 -4.057265 30.821104 -4.064257 -12.902302 0.304560 -5.799338 7.084481 8.051180 -10.421067 76.228552 -3.299465 20.469619 -5.105052 3.654843 0.657803 0.279706 2.158244 -6.972791 -15.014962 -7.178498 -17.035998 -65.769211 -68.682092 -59.210444 -68.631764 3.524761 -12.942995 -14.380502 -16.699862 29.932025 -6.253094 -0.539447 0.018386 -0.026293 -9.407554 -6.999248 5.763866 0.000000 0.000000 0.000000 -2.271525 25.857748 7.590801 -0.246767 5.713957 0.240829 2.336806 -5.598250 -6.967003 0.000000 -0.000000 0.000000
-165.511356 97.101226 -359.717086 -47.309478 -25.058220 -2.383686 -1.307433 14.596830 2.181259 -0.645348 6.481340 1.002751 -0.645350 6.481339 1.002750 -0.494173 4.859969 0.758129 15.852534 15.894427 -4.038955 30.800344 -4.036723 -12.862259 0.312106 -5.657275 7.091094 8.052420 -10.391895 76.187580 -3.289745 20.484187 -5.070763 3.653369 0.667564 0.302234 2.090364 -6.826713 -14.934981 -7.143056 -17.136907 -65.845165 -68.542810 -59.242106 -68.722108 3.545352 -12.960614 -14.450591 -16.531046 29.638391 -6.134150 -0.607480 0.111687 0.017013 -9.377651 -6.976532 5.743159 0.000000 0.000000 0.000000 -2.217325 25.605752 7.584078 -0.262264 5.743859 0.271542 2.379560 -5.585581 -6.966296 0.000000 0.000000 0.000000
-165.423625 97.094598 -359.722244 -47.357227 -24.883969 -2.402530 -1.286491 14.456195 2.195802 -0.635987 6.418893 1.008260 -0.635987 6.418893 1.008260 -0.487121 4.813143 0.762108 15.846016 15.912492 -4.021835 30.778970 -4.010664 -12.824441 0.317857 -5.526299 7.100253 8.050116 -10.367291 76.146797 -3.278554 20.504164 -5.037569 3.654214 0.674271 0.317725 2.028156 -6.690639 -14.859305 -7.127870 -17.240776 -65.913702 -68.426130 -59.292229 -68.802987 3.557783 -12.984258 -14.510080 -16.387571 29.370613 -6.036501 -0.663193 0.198456 0.056361 -9.349553 -6.955514 5.727884 0.000000 0.000000 0.000000 -2.170219 25.372712 7.575158 -0.276932 5.775659 0.301688 2.417247 -5.574530 -6.965088 0.000000 -0.000000 0.000000
-165.339945 97.093234 -359.726056 -47.394298 -24.736133 -2.418112 -1.269302 14.335787 2.207918 -0.628281 6.365425 1.012861 -0.628281 6.365425 1.012861 -0.481314 4.773051 0.765431 15.837832 15.928852 -4.007300 30.755737 -3.987346 -12.791289 0.321522 -5.411661 7.113545 8.041137 -10.349961 76.105300 -3.264861 20.533983 -5.005458 3.658905 0.676085 0.321829 1.973345 -6.570695 -14.791129 -7.138600 -17.343057 -65.971423 -68.341544 -59.369806 -68.868084 3.558577 -13.016075 -14.556869 -16.286244 29.142078 -5.973556 -0.695658 0.276602 0.091288 -9.323846 -6.937438 5.721398 -0.000000 -0.000000 0.000000 -2.132592 25.167865 7.563196 -0.292174 5.811732 0.332497 2.448071 -5.567144 -6.963252 0.000000 -0.000000 -0.000000
-165.259370 97.095233 -359.729196 -47.424445 -24.605672 -2.431171 -1.254156 14.228864 2.218245 -0.621471 6.317947 1.016765 -0.621471 6.317947 1.016765 -0.476181 4.737449 0.768248 15.829000 15.944284 -3.993949 30.731894 -3.965520 -12.760348 0.323390 -5.308110 7.129370 8.028622 -10.337210 76.063985 -3.249682 20.569201 -4.974433 3.665898 0.674838 0.318895 1.924184 -6.460808 -14.727072 -7.169664 -17.448369 -66.021616 -68.279706 -59.465893 -68.923617 3.551102 -13.053922 -14.593014 -16.209298 28.939718 -5.930875 -0.715784 0.348186 0.122398 -9.299938 -6.921073 5.720335 -0.000000 -0.000000 0.000000 -2.101856 24.982008 7.549193 -0.306581 5.849695 0.362744 2.473825 -5.561362 -6.960931 0.000000 -0.000000 -0.000000
-165.182173 97.098254 -359.733012 -47.451994 -24.482856 -2.441486 -1.237997 14.128680 2.226910 -0.614185 6.273474 1.019924 -0.614185 6.273474 1.019924 -0.470686 4.704103 0.770504 15.821920 15.960176 -3.978736 30.710580 -3.942958 -12.726425 0.322536 -5.210981 7.145460 8.018436 -10.325505 76.025731 -3.234646 20.601904 -4.945621 3.672888 0.672962 0.314934 1.881083 -6.352807 -14.661138 -7.224641 -17.573445 -66.066826 -68.235088 -59.572095 -68.978799 3.537320 -13.097348 -14.614140 -16.128604 28.750165 -5.886400 -0.744040 0.412865 0.147526 -9.277867 -6.904413 5.720021 -0.000000 -0.000000 0.000000 -2.077236 24.806495 7.534048 -0.315127 5.884272 0.388223 2.494823 -5.552613 -6.958057 0.000000 0.000000 0.000000
-165.109397 97.101841 -359.737951 -47.478933 -24.367288 -2.448806 -1.219810 14.034714 2.233776 -0.605970 6.231779 1.022246 -0.605970 6.231779 1.022246 -0.464490 4.672843 0.772128 15.818542 15.977631 -3.961081 30.694952 -3.917349 -12.688748 0.316936 -5.119209 7.161978 8.011830 -10.314818 75.991539 -3.219192 20.627399 -4.919477 3.679657 0.670736 0.310409 1.845875 -6.242764 -14.589727 -7.301849 -17.721865 -66.111701 -68.208986 -59.682378 -69.031904 3.515022 -13.147521 -14.613873 -16.026818 28.574070 -5.828968 -0.794747 0.468190 0.164501 -9.257249 -6.886549 5.718976 -0.000000 -0.000000 0.000000 -2.060952 24.642778 7.517864 -0.311990 5.912283 0.406352 2.509766 -5.538203 -6.954867 0.000000 0.000000 0.000000
-165.039998 97.106451 -359.743566 -47.503262 -24.259359 -2.453367 -1.200589 13.947486 2.238962 -0.597274 6.193089 1.023812 -0.597275 6.193089 1.023812 -0.457931 4.643838 0.773184 15.816923 15.995536 -3.941543 30.681860 -3.891035 -12.648060 0.308626 -5.033859 7.178753 8.007555 -10.305165 75.960412 -3.203896 20.650380 -4.895552 3.686420 0.667883 0.304856 1.816752 -6.134645 -14.516323 -7.402947 -17.890126 -66.151375 -68.200542 -59.802780 -69.084180 3.486198 -13.203113 -14.598478 -15.921239 28.410738 -5.769838 -0.853608 0.516613 0.175459 -9.238467 -6.868391 5.718681 -0.000000 0.000000 -0.000000 -2.050690 24.489415 7.500647 -0.303001 5.936884 0.419744 2.519957 -5.520822 -6.951127 0.000000 0.000000 0.000000
